<svg width="60" height="60" viewBox="0 0 60 60" fill="none" xmlns="http://www.w3.org/2000/svg">
<path fill-rule="evenodd" clip-rule="evenodd" d="M25.65 18.9C25.65 16.5 26.1 14.1 26.85 12C19.2 14.25 13.5 21.3 13.5 29.7C13.5 39.75 21.6 48 31.65 48C37.8 48 43.05 45 46.35 40.35C34.95 40.05 25.65 30.6 25.65 18.9Z" fill="#ECF0F1"/>
<path d="M27.75 42C28.9926 42 30 40.9926 30 39.75C30 38.5074 28.9926 37.5 27.75 37.5C26.5074 37.5 25.5 38.5074 25.5 39.75C25.5 40.9926 26.5074 42 27.75 42Z" fill="#BDC3C7"/>
<path d="M21 34.5C23.4853 34.5 25.5 32.4853 25.5 30C25.5 27.5147 23.4853 25.5 21 25.5C18.5147 25.5 16.5 27.5147 16.5 30C16.5 32.4853 18.5147 34.5 21 34.5Z" fill="#BDC3C7"/>
</svg>
