<svg width="60" height="60" viewBox="0 0 60 60" fill="none" xmlns="http://www.w3.org/2000/svg">
<path fill-rule="evenodd" clip-rule="evenodd" d="M30 9C29.1 9 28.5 9.6 28.5 10.5V13.5C28.5 14.4 29.1 15 30 15C30.9 15 31.5 14.4 31.5 13.5V10.5C31.5 9.6 30.9 9 30 9ZM30 45C29.1 45 28.5 45.6 28.5 46.5V49.5C28.5 50.4 29.1 51 30 51C30.9 51 31.5 50.4 31.5 49.5V46.5C31.5 45.6 30.9 45 30 45ZM49.5 28.5H46.5C45.6 28.5 45 29.1 45 30C45 30.9 45.6 31.5 46.5 31.5H49.5C50.4 31.5 51 30.9 51 30C51 29.1 50.4 28.5 49.5 28.5ZM13.5 28.5H10.5C9.6 28.5 9 29.1 9 30C9 30.9 9.6 31.5 10.5 31.5H13.5C14.4 31.5 15 30.9 15 30C15 29.1 14.4 28.5 13.5 28.5ZM42.75 40.65C42.15 40.05 41.25 40.05 40.65 40.65C40.05 41.25 40.05 42.15 40.65 42.75L42.75 44.85C43.35 45.45 44.25 45.45 44.85 44.85C45.45 44.25 45.45 43.35 44.85 42.75L42.75 40.65ZM17.25 15.15C16.65 14.55 15.75 14.55 15.15 15.15C14.55 15.75 14.55 16.65 15.15 17.25L17.25 19.35C17.85 19.95 18.75 19.95 19.35 19.35C19.95 18.75 19.95 17.85 19.35 17.25L17.25 15.15ZM42.75 19.35L44.85 17.25C45.45 16.65 45.45 15.75 44.85 15.15C44.25 14.55 43.35 14.55 42.75 15.15L40.65 17.25C40.05 17.85 40.05 18.75 40.65 19.35C41.25 19.95 42.15 19.95 42.75 19.35ZM17.25 40.65L15.15 42.75C14.55 43.35 14.55 44.25 15.15 44.85C15.75 45.45 16.65 45.45 17.25 44.85L19.35 42.75C19.95 42.15 19.95 41.25 19.35 40.65C18.75 40.05 17.85 40.05 17.25 40.65Z" fill="#F1C40F"/>
</svg>
